<mxfile host="app.diagrams.net" modified="2022-10-27T23:56:48.796Z" agent="5.0 (Windows)" etag="tMAn8t4frJUORpULq-Uq" version="20.5.1" type="github">
  <diagram id="D3TgbV68aJpIbn6jyyBy" name="Page-1">
    <mxGraphModel dx="1422" dy="744" grid="1" gridSize="10" guides="1" tooltips="1" connect="1" arrows="1" fold="1" page="1" pageScale="1" pageWidth="827" pageHeight="1169" math="0" shadow="0">
      <root>
        <mxCell id="0" />
        <mxCell id="1" parent="0" />
        <mxCell id="nl2RbfMsUXqY2dzLQonK-18" value="" style="edgeStyle=orthogonalEdgeStyle;rounded=0;orthogonalLoop=1;jettySize=auto;html=1;" parent="1" source="nl2RbfMsUXqY2dzLQonK-20" edge="1">
          <mxGeometry relative="1" as="geometry">
            <mxPoint x="70" y="160" as="targetPoint" />
          </mxGeometry>
        </mxCell>
        <mxCell id="nl2RbfMsUXqY2dzLQonK-19" value="Provides Registration Details" style="edgeLabel;html=1;align=center;verticalAlign=middle;resizable=0;points=[];" parent="nl2RbfMsUXqY2dzLQonK-18" vertex="1" connectable="0">
          <mxGeometry x="-0.275" y="2" relative="1" as="geometry">
            <mxPoint as="offset" />
          </mxGeometry>
        </mxCell>
        <mxCell id="nl2RbfMsUXqY2dzLQonK-20" value="&lt;div&gt;User on Registration page&lt;br&gt;&lt;/div&gt;" style="ellipse;whiteSpace=wrap;html=1;" parent="1" vertex="1">
          <mxGeometry x="10" width="120" height="80" as="geometry" />
        </mxCell>
        <mxCell id="nl2RbfMsUXqY2dzLQonK-21" value="" style="edgeStyle=orthogonalEdgeStyle;rounded=0;orthogonalLoop=1;jettySize=auto;html=1;startArrow=none;entryX=1;entryY=0.5;entryDx=0;entryDy=0;exitX=0.526;exitY=0.033;exitDx=0;exitDy=0;exitPerimeter=0;" parent="1" source="nl2RbfMsUXqY2dzLQonK-24" target="nl2RbfMsUXqY2dzLQonK-20" edge="1">
          <mxGeometry relative="1" as="geometry">
            <mxPoint x="230" y="200" as="targetPoint" />
            <Array as="points">
              <mxPoint x="250" y="40" />
            </Array>
          </mxGeometry>
        </mxCell>
        <mxCell id="nl2RbfMsUXqY2dzLQonK-22" value="" style="edgeStyle=orthogonalEdgeStyle;rounded=0;orthogonalLoop=1;jettySize=auto;html=1;startArrow=none;" parent="1" source="nl2RbfMsUXqY2dzLQonK-28" edge="1">
          <mxGeometry relative="1" as="geometry">
            <mxPoint x="70" y="320" as="targetPoint" />
          </mxGeometry>
        </mxCell>
        <mxCell id="nl2RbfMsUXqY2dzLQonK-24" value="Failure Username/Email Exists " style="text;html=1;align=center;verticalAlign=middle;resizable=0;points=[];autosize=1;strokeColor=none;fillColor=none;" parent="1" vertex="1">
          <mxGeometry x="150" y="120" width="190" height="30" as="geometry" />
        </mxCell>
        <mxCell id="nl2RbfMsUXqY2dzLQonK-25" value="" style="edgeStyle=orthogonalEdgeStyle;rounded=0;orthogonalLoop=1;jettySize=auto;html=1;endArrow=none;" parent="1" target="nl2RbfMsUXqY2dzLQonK-24" edge="1">
          <mxGeometry relative="1" as="geometry">
            <mxPoint x="130" y="200" as="sourcePoint" />
            <mxPoint x="210" y="200" as="targetPoint" />
          </mxGeometry>
        </mxCell>
        <mxCell id="nl2RbfMsUXqY2dzLQonK-40" style="edgeStyle=orthogonalEdgeStyle;rounded=0;orthogonalLoop=1;jettySize=auto;html=1;entryX=0;entryY=0.5;entryDx=0;entryDy=0;" parent="1" target="nl2RbfMsUXqY2dzLQonK-30" edge="1">
          <mxGeometry relative="1" as="geometry">
            <mxPoint x="130" y="360" as="sourcePoint" />
          </mxGeometry>
        </mxCell>
        <mxCell id="nl2RbfMsUXqY2dzLQonK-28" value="Success" style="text;html=1;align=center;verticalAlign=middle;resizable=0;points=[];autosize=1;strokeColor=none;fillColor=none;" parent="1" vertex="1">
          <mxGeometry x="35" y="265" width="70" height="30" as="geometry" />
        </mxCell>
        <mxCell id="nl2RbfMsUXqY2dzLQonK-29" value="" style="edgeStyle=orthogonalEdgeStyle;rounded=0;orthogonalLoop=1;jettySize=auto;html=1;endArrow=none;" parent="1" target="nl2RbfMsUXqY2dzLQonK-28" edge="1">
          <mxGeometry relative="1" as="geometry">
            <mxPoint x="70" y="240" as="sourcePoint" />
            <mxPoint x="70" y="320" as="targetPoint" />
          </mxGeometry>
        </mxCell>
        <mxCell id="nl2RbfMsUXqY2dzLQonK-34" value="" style="edgeStyle=orthogonalEdgeStyle;rounded=0;orthogonalLoop=1;jettySize=auto;html=1;exitX=0.5;exitY=0;exitDx=0;exitDy=0;entryX=0;entryY=0.5;entryDx=0;entryDy=0;" parent="1" source="nl2RbfMsUXqY2dzLQonK-30" edge="1">
          <mxGeometry relative="1" as="geometry">
            <Array as="points">
              <mxPoint x="332" y="60" />
            </Array>
            <mxPoint x="410" y="60" as="targetPoint" />
          </mxGeometry>
        </mxCell>
        <mxCell id="nl2RbfMsUXqY2dzLQonK-35" value="Proivde Extra Links" style="edgeLabel;html=1;align=center;verticalAlign=middle;resizable=0;points=[];" parent="nl2RbfMsUXqY2dzLQonK-34" vertex="1" connectable="0">
          <mxGeometry x="-0.275" y="2" relative="1" as="geometry">
            <mxPoint x="-2" y="11" as="offset" />
          </mxGeometry>
        </mxCell>
        <mxCell id="nl2RbfMsUXqY2dzLQonK-46" value="Selects Skills " style="edgeLabel;html=1;align=center;verticalAlign=middle;resizable=0;points=[];" parent="nl2RbfMsUXqY2dzLQonK-34" vertex="1" connectable="0">
          <mxGeometry x="-0.275" y="2" relative="1" as="geometry">
            <mxPoint x="170" y="103" as="offset" />
          </mxGeometry>
        </mxCell>
        <mxCell id="nl2RbfMsUXqY2dzLQonK-30" value="User on extra links page" style="ellipse;whiteSpace=wrap;html=1;" parent="1" vertex="1">
          <mxGeometry x="272" y="320" width="120" height="80" as="geometry" />
        </mxCell>
        <mxCell id="nl2RbfMsUXqY2dzLQonK-42" value="Get Skills From DB" style="edgeStyle=orthogonalEdgeStyle;rounded=0;orthogonalLoop=1;jettySize=auto;html=1;" parent="1" target="nl2RbfMsUXqY2dzLQonK-41" edge="1">
          <mxGeometry relative="1" as="geometry">
            <mxPoint x="470" y="100" as="sourcePoint" />
          </mxGeometry>
        </mxCell>
        <mxCell id="nl2RbfMsUXqY2dzLQonK-39" value="&lt;div&gt;Provide JWT&lt;/div&gt;&lt;div&gt;(JSON Web Token)&lt;/div&gt;" style="text;html=1;strokeColor=none;fillColor=none;align=center;verticalAlign=middle;whiteSpace=wrap;rounded=0;" parent="1" vertex="1">
          <mxGeometry x="130" y="330" width="128" height="30" as="geometry" />
        </mxCell>
        <mxCell id="nl2RbfMsUXqY2dzLQonK-44" value="" style="edgeStyle=orthogonalEdgeStyle;rounded=0;orthogonalLoop=1;jettySize=auto;html=1;" parent="1" source="nl2RbfMsUXqY2dzLQonK-41" edge="1">
          <mxGeometry relative="1" as="geometry">
            <mxPoint x="470" y="345" as="targetPoint" />
          </mxGeometry>
        </mxCell>
        <mxCell id="nl2RbfMsUXqY2dzLQonK-41" value="User on skill selection page" style="ellipse;whiteSpace=wrap;html=1;" parent="1" vertex="1">
          <mxGeometry x="410" y="185" width="120" height="80" as="geometry" />
        </mxCell>
        <mxCell id="nl2RbfMsUXqY2dzLQonK-48" value="" style="edgeStyle=orthogonalEdgeStyle;rounded=0;orthogonalLoop=1;jettySize=auto;html=1;" parent="1" target="nl2RbfMsUXqY2dzLQonK-47" edge="1">
          <mxGeometry relative="1" as="geometry">
            <mxPoint x="530" y="385" as="sourcePoint" />
          </mxGeometry>
        </mxCell>
        <mxCell id="nl2RbfMsUXqY2dzLQonK-51" value="" style="edgeStyle=orthogonalEdgeStyle;rounded=0;orthogonalLoop=1;jettySize=auto;html=1;startArrow=none;" parent="1" source="nl2RbfMsUXqY2dzLQonK-52" target="nl2RbfMsUXqY2dzLQonK-50" edge="1">
          <mxGeometry relative="1" as="geometry">
            <Array as="points">
              <mxPoint x="670" y="300" />
            </Array>
          </mxGeometry>
        </mxCell>
        <mxCell id="nl2RbfMsUXqY2dzLQonK-47" value="User on Edit Profile Picture Page" style="ellipse;whiteSpace=wrap;html=1;" parent="1" vertex="1">
          <mxGeometry x="610" y="345" width="120" height="80" as="geometry" />
        </mxCell>
        <mxCell id="nl2RbfMsUXqY2dzLQonK-50" value="User redirected to profile overview" style="ellipse;whiteSpace=wrap;html=1;" parent="1" vertex="1">
          <mxGeometry x="610" y="185" width="120" height="80" as="geometry" />
        </mxCell>
        <mxCell id="nl2RbfMsUXqY2dzLQonK-52" value="Provides Profile Picture" style="text;html=1;align=center;verticalAlign=middle;resizable=0;points=[];autosize=1;strokeColor=none;fillColor=none;" parent="1" vertex="1">
          <mxGeometry x="595" y="290" width="150" height="30" as="geometry" />
        </mxCell>
        <mxCell id="nl2RbfMsUXqY2dzLQonK-53" value="" style="edgeStyle=orthogonalEdgeStyle;rounded=0;orthogonalLoop=1;jettySize=auto;html=1;endArrow=none;" parent="1" source="nl2RbfMsUXqY2dzLQonK-47" target="nl2RbfMsUXqY2dzLQonK-52" edge="1">
          <mxGeometry relative="1" as="geometry">
            <mxPoint x="670" y="345" as="sourcePoint" />
            <mxPoint x="670" y="265" as="targetPoint" />
            <Array as="points">
              <mxPoint x="670" y="300" />
            </Array>
          </mxGeometry>
        </mxCell>
        <mxCell id="bfwa_oRWZhxNJ9o86CLa-1" value="&#xa;api/Register&#xa;&#xa;" style="rounded=1;whiteSpace=wrap;html=1;absoluteArcSize=1;arcSize=14;strokeWidth=2;" vertex="1" parent="1">
          <mxGeometry x="10" y="160" width="120" height="80" as="geometry" />
        </mxCell>
        <mxCell id="bfwa_oRWZhxNJ9o86CLa-2" value="Authorization" style="rounded=1;whiteSpace=wrap;html=1;absoluteArcSize=1;arcSize=14;strokeWidth=2;" vertex="1" parent="1">
          <mxGeometry x="10" y="320" width="120" height="80" as="geometry" />
        </mxCell>
        <mxCell id="bfwa_oRWZhxNJ9o86CLa-3" value="api/UpdateProfile" style="rounded=1;whiteSpace=wrap;html=1;absoluteArcSize=1;arcSize=14;strokeWidth=2;" vertex="1" parent="1">
          <mxGeometry x="410" y="20" width="120" height="80" as="geometry" />
        </mxCell>
        <mxCell id="bfwa_oRWZhxNJ9o86CLa-4" value="api/AssignSkills" style="rounded=1;whiteSpace=wrap;html=1;absoluteArcSize=1;arcSize=14;strokeWidth=2;" vertex="1" parent="1">
          <mxGeometry x="410" y="345" width="120" height="80" as="geometry" />
        </mxCell>
      </root>
    </mxGraphModel>
  </diagram>
</mxfile>
